<?xml version="1.0" standalone="no"?>
<!DOCTYPE svg PUBLIC "-//W3C//DTD SVG 20010904//EN"
 "http://www.w3.org/TR/2001/REC-SVG-20010904/DTD/svg10.dtd">
<svg version="1.0" xmlns="http://www.w3.org/2000/svg"
 width="225.000000pt" height="225.000000pt" viewBox="0 0 225.000000 225.000000"
 preserveAspectRatio="xMidYMid meet">
<metadata>
Created by potrace 1.15, written by Peter Selinger 2001-2017
</metadata>
<g transform="translate(0.000000,225.000000) scale(0.100000,-0.100000)"
fill="#000000" stroke="none">
<line x1="478" y1="129" x2="254" y2="233"/>
      <line color='red' x1="354" y1="125" x2="254" y2="173"/>
      <line  color='red' x1="478" y1="189" x2="254" y2="293"/>
      <line  color='red' x1="478" y1="249" x2="254" y2="353"/>
<path d="M985 2239 c-156 -19 -320 -77 -464 -166 -106 -65 -291 -253 -353
-358 -229 -386 -218 -847 29 -1218 58 -87 187 -219 274 -280 383 -270 882
-277 1274 -18 88 58 210 174 274 260 281 378 294 896 34 1289 -230 349 -648
541 -1068 491z m474 -425 c185 -97 347 -183 359 -191 23 -14 9 -22 -336 -204
l-360 -189 -356 187 c-196 104 -356 190 -356 193 0 4 696 376 709 379 2 1 155
-78 340 -175z m-713 -557 c143 -76 268 -143 277 -150 16 -11 17 -46 15 -424
l-3 -411 -355 186 -355 187 -3 419 -2 418 82 -45 c46 -24 200 -105 344 -180z"/>
<line color='red' x1="354" y1="125" x2="254" y2="173"/>
      <line color='green' x1="478" y1="189" x2="254" y2="293"/>
      <line color= 'purple' x1="478" y1="249" x2="254" y2="353"/>
</g>
</svg>
